<svg id="er1olyExRa61" xmlns="http://www.w3.org/2000/svg" xmlns:xlink="http://www.w3.org/1999/xlink" viewBox="0 0 396.021 396.021" shape-rendering="geometricPrecision" text-rendering="geometricPrecision"><defs><radialGradient id="er1olyExRa64-fill" cx="0" cy="0" r="0.702164" spreadMethod="pad" gradientUnits="objectBoundingBox" gradientTransform="matrix(0.774284 0.632839 -0.424747 0.519681 0.451172 0.94)"><stop id="er1olyExRa64-fill-0" offset="0%" stop-color="#4c1d08"/><stop id="er1olyExRa64-fill-1" offset="100%" stop-color="#ea6f28"/></radialGradient></defs><path d="M-47.298739,0c0-10.022451,21.176367-18.147253,47.298739-18.147253s47.298739,8.124802,47.298739,18.147253-21.176367,18.147253-47.298739,18.147253-47.298739-8.124802-47.298739-18.147253Z" transform="matrix(-1 0 0 1 207.892728 280.426422)" paint-order="fill markers stroke" fill-opacity="0.6" stroke-width="0"/><g id="er1olyExRa63" transform="matrix(.972284 0 0 1 4.487372 111.109299)"><ellipse rx="43.827328" ry="42.800125" transform="matrix(.942634 0 0 1 209.203643 123.354443)" fill="url(#er1olyExRa64-fill)"/><path d="M549.368315,-431.046623c-24.566-33.422-58.269-57.936-97.461-70.889-20.001-6.616-40.924-9.971-62.187-9.971-28.173,0-55.39,5.795-80.891,17.225-52.06,23.324-91.549,67.904-108.34,122.307-5.825,18.873-8.779,38.548-8.779,58.478c0,31.508,7.185,61.633,21.354,89.537c13.511,26.606,33.252,50.226,57.087,68.304c34.634,26.279,75.98,40.169,119.568,40.169c31.582,0,61.764-7.214,89.708-21.441c32.069-16.323,59.127-41.096,78.248-71.643c19.662-31.411,30.055-67.693,30.055-104.926c0-.002,0-.101,0-.103-.022-42.459-13.288-82.933-38.362-117.047Zm16.896,94.351c-54.698-42.914-121.258-68.504-190.722-73.19c1.199-8.65-.082-16.649-3.771-23.168c22.987-20.511,48.949-36.863,77.339-48.702c63.844,22.556,108.671,78.888,117.154,145.06Zm-225.021-49.629c-3.197,3.197-6.645,5.964-10.258,8.232-8.816,5.549-18.191,7.777-24.468,5.813-1.672-.525-3.081-1.353-4.187-2.458-3.418-3.417-4.097-9.978-1.817-17.549c2.215-7.355,6.974-14.941,13.411-21.37c3.595-3.602,7.523-6.662,11.675-9.094c10.371-6.074,20.945-7.392,26.39-3.22.282.212.565.459.841.734c3.935,3.936,4.211,11.819.742,20.633-.052.115-.101.232-.148.35-2.526,6.286-6.738,12.486-12.181,17.929Zm77.381-103.244c-22.474,11.701-43.307,26.227-62.218,43.416-8.213-3.114-18.097-2.964-28.291.393-1.858-11.064-3.376-22.252-4.534-33.444c20.998-8.423,43.209-12.703,66.139-12.703c9.74,0,19.397.786,28.904,2.338Zm-114.173,19.371c1.33,11.436,3.015,22.845,5.044,34.106-3.412,2.465-6.666,5.239-9.716,8.295-7.21,7.201-12.771,15.361-16.314,23.878-19.015,3.809-37.675,9.226-55.76,16.164c15.933-34.951,42.838-63.933,76.746-82.443Zm-73.554,236.783c-12.731-25.072-19.187-52.15-19.187-80.482c0-16.436,2.237-32.669,6.642-48.325c19.551-8.767,39.95-15.577,60.849-20.328.291,8.672,3.333,16.299,8.988,21.954.646.646,1.327,1.247,2.025,1.827-20.269,40.721-30.946,86.112-30.946,131.909c0,12.188.773,24.356,2.253,36.409-12.256-12.738-22.653-27.268-30.624-42.964Zm54.308,63.628c-3.924-18.668-5.937-37.845-5.937-57.073c0-43.392,10.276-86.381,29.762-124.804.839.053,1.684.089,2.539.089c6.057,0,12.483-1.321,18.923-3.887c26.418,76.887,70.104,147.688,127.176,206.144-21.478,8.908-44.269,13.431-67.947,13.431-37.95.001-74.005-11.708-104.516-33.9Zm255.517-49.795c-15.927,25.443-37.982,46.419-64.06,61.042-58.256-58.183-102.531-129.545-128.548-207.195c2.519-1.978,4.952-4.127,7.271-6.446c5.493-5.493,10.084-11.648,13.526-18.075c73.311,3.747,143.481,32.237,198.743,80.709-.773,31.945-10.029,62.964-26.932,89.965Z" transform="matrix(.232249 0 0 0.232123 118.691489 196.217068)"/></g><script><![CDATA[(function(s,i,u,o,c,w,d,t,n,x,e,p,a,b){w[o]=w[o]||{};w[o][s]=w[o][s]||[];w[o][s].push(i);e=d.createElementNS(n,t);e.async=true;e.setAttributeNS(x,'href',[u,s,'.','j','s','?','v','=',c].join(''));e.setAttributeNS(null,'src',[u,s,'.','j','s','?','v','=',c].join(''));p=d.getElementsByTagName(t)[0];p.parentNode.insertBefore(e,p);})('5c7f360c',{"root":"er1olyExRa61","version":"2022-05-04","animations":[{"elements":{"er1olyExRa63":{"transform":{"data":{"s":{"x":0.972284,"y":1},"t":{"x":-209.203644,"y":-123.354446}},"keys":{"o":[{"t":0,"v":{"x":207.892728,"y":234.463745,"type":"cusp","end":{"x":207.892728,"y":234.463745}}},{"t":200,"v":{"x":209.203644,"y":123.354446,"type":"cusp","start":{"x":209.203644,"y":123.354446},"end":{"x":209.203644,"y":123.354446}}},{"t":700,"v":{"x":209.203646,"y":234.463745,"type":"cusp","start":{"x":209.203646,"y":234.463745},"end":{"x":209.203646,"y":234.463745}}},{"t":900,"v":{"x":210.478435,"y":104.644533,"type":"cusp","start":{"x":210.478435,"y":104.644533},"end":{"x":210.478435,"y":104.644533}}},{"t":1100,"v":{"x":207.892728,"y":234.463745,"type":"cusp","start":{"x":207.892728,"y":234.463745},"end":{"x":207.892728,"y":234.463745}}},{"t":1500,"v":{"x":209.203644,"y":123.354446,"type":"cusp","start":{"x":209.203644,"y":123.354446},"end":{"x":209.203644,"y":123.354446}}},{"t":1700,"v":{"x":210.478435,"y":104.644533,"type":"cusp","start":{"x":210.478435,"y":104.644533},"end":{"x":210.478435,"y":104.644533}}},{"t":1900,"v":{"x":207.892728,"y":234.463745,"type":"cusp","start":{"x":207.892728,"y":234.463745},"end":{"x":207.892728,"y":234.463745}}},{"t":2300,"v":{"x":210.478435,"y":234.463745,"type":"cusp","start":{"x":210.478435,"y":234.463745},"end":{"x":210.478435,"y":234.463745}}},{"t":2500,"v":{"x":210.478435,"y":104.644533,"type":"cusp","start":{"x":210.478435,"y":104.644533},"end":{"x":210.478435,"y":104.644533}}},{"t":2700,"v":{"x":207.892728,"y":234.463745,"type":"cusp","start":{"x":207.892728,"y":234.463745},"end":{"x":207.892728,"y":234.463745}}},{"t":3200,"v":{"x":209.203644,"y":123.354446,"type":"cusp","start":{"x":209.203644,"y":123.354446},"end":{"x":209.203644,"y":123.354446}}},{"t":3400,"v":{"x":207.892728,"y":234.463745,"type":"cusp","start":{"x":207.892728,"y":234.463745},"end":{"x":207.892728,"y":234.463745}}},{"t":3600,"v":{"x":210.478435,"y":104.644533,"type":"cusp","start":{"x":210.478435,"y":104.644533},"end":{"x":210.478435,"y":104.644533}}},{"t":4100,"v":{"x":209.203644,"y":123.354446,"type":"cusp","start":{"x":209.203644,"y":123.354446},"end":{"x":209.203644,"y":123.354446}}},{"t":4300,"v":{"x":210.478435,"y":243.973177,"type":"cusp","start":{"x":210.478435,"y":243.973177}}}]}}}},"s":"MKDA1M2M0NmJhZGJlYmSJhYWJkYjJiOGI3NmIW4MzdkN2M3OTc5UVg3HNTZiYWRiMmJiYWVhYE2JkYjJQYjhiN1E2YjMgzN2E3NTZiYjJiZGFMlYmJhYWJkYjJiOGI3YYmM2YjgzN2E3NTZiRIWFmYjJiNWI1NmI4M0MY3YTc1NmJhYWI1YmRLhZVFiYmI3YWFiZGFlYVjZiODNhZmFhYjViYS2FlRjc1RzZiYmNiOWRFlYWVhZFc2YjgzN2FAjNg|"}],"options":"MODAxME84ODJmODBCODOE2ZTdmODEyZjQ3MmYR3OTdjNmU3MVQyZjhhK"},'https://cdn.svgator.com/ply/','__SVGATOR_PLAYER__','2022-05-04',window,document,'script','http://www.w3.org/2000/svg','http://www.w3.org/1999/xlink')]]></script></svg>