<?xml version='1.0' encoding='iso-8859-1'?>
<!DOCTYPE svg PUBLIC '-//W3C//DTD SVG 1.1//EN' 'http://www.w3.org/Graphics/SVG/1.1/DTD/svg11.dtd'>
<svg version="1.1" xmlns="http://www.w3.org/2000/svg" viewBox="0 0 396.021 396.021" xmlns:xlink="http://www.w3.org/1999/xlink" enable-background="new 0 0 396.021 396.021">
  <path d="m357.658,80.86c-24.566-33.422-58.269-57.936-97.461-70.889-20.001-6.616-40.924-9.971-62.187-9.971-28.173,0-55.39,5.795-80.891,17.225-52.06,23.324-91.549,67.904-108.34,122.307-5.825,18.873-8.779,38.548-8.779,58.478 0,31.508 7.185,61.633 21.354,89.537 13.511,26.606 33.252,50.226 57.087,68.304 34.634,26.279 75.98,40.169 119.568,40.169 31.582,0 61.764-7.214 89.708-21.441 32.069-16.323 59.127-41.096 78.248-71.643 19.662-31.411 30.055-67.693 30.055-104.926 0-0.002 0-0.101 0-0.103-0.022-42.459-13.288-82.933-38.362-117.047zm16.896,94.351c-54.698-42.914-121.258-68.504-190.722-73.19 1.199-8.65-0.082-16.649-3.771-23.168 22.987-20.511 48.949-36.863 77.339-48.702 63.844,22.556 108.671,78.888 117.154,145.06zm-225.021-49.629c-3.197,3.197-6.645,5.964-10.258,8.232-8.816,5.549-18.191,7.777-24.468,5.813-1.672-0.525-3.081-1.353-4.187-2.458-3.418-3.417-4.097-9.978-1.817-17.549 2.215-7.355 6.974-14.941 13.411-21.37 3.595-3.602 7.523-6.662 11.675-9.094 10.371-6.074 20.945-7.392 26.39-3.22 0.282,0.212 0.565,0.459 0.841,0.734 3.935,3.936 4.211,11.819 0.742,20.633-0.052,0.115-0.101,0.232-0.148,0.35-2.526,6.286-6.738,12.486-12.181,17.929zm77.381-103.244c-22.474,11.701-43.307,26.227-62.218,43.416-8.213-3.114-18.097-2.964-28.291,0.393-1.858-11.064-3.376-22.252-4.534-33.444 20.998-8.423 43.209-12.703 66.139-12.703 9.74,0 19.397,0.786 28.904,2.338zm-114.173,19.371c1.33,11.436 3.015,22.845 5.044,34.106-3.412,2.465-6.666,5.239-9.716,8.295-7.21,7.201-12.771,15.361-16.314,23.878-19.015,3.809-37.675,9.226-55.76,16.164 15.933-34.951 42.838-63.933 76.746-82.443zm-73.554,236.783c-12.731-25.072-19.187-52.15-19.187-80.482 0-16.436 2.237-32.669 6.642-48.325 19.551-8.767 39.95-15.577 60.849-20.328 0.291,8.672 3.333,16.299 8.988,21.954 0.646,0.646 1.327,1.247 2.025,1.827-20.269,40.721-30.946,86.112-30.946,131.909 0,12.188 0.773,24.356 2.253,36.409-12.256-12.738-22.653-27.268-30.624-42.964zm54.308,63.628c-3.924-18.668-5.937-37.845-5.937-57.073 0-43.392 10.276-86.381 29.762-124.804 0.839,0.053 1.684,0.089 2.539,0.089 6.057,0 12.483-1.321 18.923-3.887 26.418,76.887 70.104,147.688 127.176,206.144-21.478,8.908-44.269,13.431-67.947,13.431-37.95,0.001-74.005-11.708-104.516-33.9zm255.517-49.795c-15.927,25.443-37.982,46.419-64.06,61.042-58.256-58.183-102.531-129.545-128.548-207.195 2.519-1.978 4.952-4.127 7.271-6.446 5.493-5.493 10.084-11.648 13.526-18.075 73.311,3.747 143.481,32.237 198.743,80.709-0.773,31.945-10.029,62.964-26.932,89.965z"/>
</svg>
