<svg width="425" height="380" viewBox="0 0 425 380" fill="none" xmlns="http://www.w3.org/2000/svg">
<path d="M351.192 379.748H72.9021C68.4151 379.748 64.7731 376.115 64.7731 371.619V220.087L8.10906 219.973C4.82506 219.965 1.86606 217.981 0.614055 214.95C-0.637945 211.91 0.0610557 208.423 2.37806 206.098L206.105 2.37099C207.958 0.525994 210.608 -0.295005 213.152 0.0949948C215.566 0.484995 217.663 1.93999 218.883 4.03699L266.313 51.467V36.324C266.313 31.837 269.946 28.195 274.442 28.195H322.197C326.692 28.195 330.326 31.837 330.326 36.324V115.48L421.716 206.878C424.041 209.203 424.74 212.706 423.48 215.746C422.22 218.778 419.253 220.753 415.969 220.753C415.961 220.753 415.961 220.753 415.953 220.753L359.313 220.639V371.619C359.321 376.115 355.687 379.748 351.192 379.748ZM81.0311 363.491H343.064V212.495C343.064 210.333 343.918 208.26 345.454 206.74C346.982 205.22 349.039 204.366 351.193 204.366C351.201 204.366 351.201 204.366 351.209 204.366L396.314 204.455L316.459 124.592C314.931 123.064 314.077 120.999 314.077 118.845V44.453H282.579V71.098C282.579 74.382 280.604 77.349 277.564 78.609C274.532 79.877 271.037 79.178 268.704 76.845L211.666 19.807L27.7161 203.757L72.9191 203.846C77.4061 203.854 81.0311 207.488 81.0311 211.975C81.0311 211.974 81.0311 363.491 81.0311 363.491Z" fill="#010002"/>
<path d="M160.373 255.092V262.891H141.134V255.092H160.373ZM143.809 236.078V283H134.366V236.078H143.809ZM167.205 236.078V283H157.859V236.078H167.205ZM207.875 255.897V263.729C207.875 267.037 207.467 269.938 206.65 272.43C205.855 274.9 204.717 276.974 203.234 278.649C201.773 280.304 200.001 281.55 197.917 282.388C195.854 283.226 193.566 283.645 191.053 283.645C188.539 283.645 186.24 283.226 184.156 282.388C182.094 281.55 180.311 280.304 178.807 278.649C177.324 276.974 176.175 274.9 175.358 272.43C174.542 269.938 174.134 267.037 174.134 263.729V255.897C174.134 252.503 174.531 249.538 175.326 247.003C176.121 244.446 177.271 242.319 178.774 240.622C180.278 238.903 182.062 237.614 184.124 236.755C186.187 235.874 188.475 235.434 190.988 235.434C193.502 235.434 195.79 235.874 197.853 236.755C199.915 237.614 201.698 238.903 203.202 240.622C204.706 242.319 205.855 244.446 206.65 247.003C207.467 249.538 207.875 252.503 207.875 255.897ZM198.497 263.729V255.833C198.497 253.599 198.336 251.697 198.014 250.129C197.691 248.539 197.208 247.239 196.563 246.229C195.919 245.22 195.135 244.479 194.211 244.006C193.287 243.533 192.213 243.297 190.988 243.297C189.764 243.297 188.679 243.533 187.733 244.006C186.81 244.479 186.025 245.22 185.381 246.229C184.758 247.239 184.285 248.539 183.963 250.129C183.662 251.697 183.512 253.599 183.512 255.833V263.729C183.512 265.877 183.673 267.714 183.995 269.239C184.317 270.765 184.801 272.011 185.445 272.978C186.09 273.944 186.874 274.664 187.798 275.137C188.743 275.588 189.828 275.813 191.053 275.813C192.256 275.813 193.319 275.588 194.243 275.137C195.188 274.664 195.973 273.944 196.596 272.978C197.219 272.011 197.691 270.765 198.014 269.239C198.336 267.714 198.497 265.877 198.497 263.729ZM218.091 236.078H226.373L235.944 268.176L245.483 236.078H252.799L239.457 283H232.399L218.091 236.078ZM214.739 236.078H222.635L223.859 267.016V283H214.739V236.078ZM249.189 236.078H257.117V283H248.029V267.016L249.189 236.078ZM291.729 275.201V283H271.329V275.201H291.729ZM274.262 236.078V283H264.819V236.078H274.262ZM288.989 255.092V262.665H271.329V255.092H288.989ZM291.664 236.078V243.909H271.329V236.078H291.664Z" fill="black"/>
</svg>
